<?xml version="1.0" standalone="no"?>
<!DOCTYPE svg PUBLIC "-//W3C//DTD SVG 20010904//EN"
 "http://www.w3.org/TR/2001/REC-SVG-20010904/DTD/svg10.dtd">
<svg version="1.0" xmlns="http://www.w3.org/2000/svg"
 width="876.000000pt" height="876.000000pt" viewBox="0 0 876.000000 876.000000"
 preserveAspectRatio="xMidYMid meet">
<metadata>
Created by potrace 1.14, written by Peter Selinger 2001-2017
</metadata>
<g transform="translate(0.000000,876.000000) scale(0.100000,-0.100000)"
fill="#000000" stroke="none">
<path d="M2579 5963 c-17 -38 -55 -122 -84 -188 -29 -66 -62 -140 -73 -165
-11 -25 -78 -173 -147 -330 -70 -157 -135 -303 -145 -325 -10 -22 -63 -141
-118 -265 -55 -124 -111 -250 -125 -280 -31 -68 -194 -432 -357 -800 -67 -151
-133 -300 -147 -330 -47 -103 -225 -505 -235 -530 -5 -14 -10 -27 -11 -29 -1
-2 99 -3 223 -3 247 2 311 9 404 51 98 43 189 121 250 213 19 29 60 116 92
193 67 165 79 194 99 238 20 43 302 719 486 1162 82 198 154 369 158 380 5 11
35 83 67 160 31 77 60 144 64 148 4 5 12 -5 18 -22 9 -26 324 -791 357 -866 7
-16 23 -55 35 -85 12 -30 28 -68 35 -85 21 -48 93 -221 131 -310 6 -16 33 -82
59 -145 45 -111 112 -271 141 -337 8 -18 25 -61 39 -95 13 -35 43 -110 68
-168 24 -58 73 -175 107 -260 35 -85 67 -159 71 -164 6 -7 440 -11 756 -7 l52
1 -19 38 c-11 20 -57 123 -103 227 -70 157 -533 1192 -620 1385 -13 30 -80
179 -147 330 -68 151 -183 410 -257 575 -74 165 -151 336 -170 380 -43 95 -76
145 -134 204 -72 73 -179 131 -286 157 -15 4 -135 9 -265 11 l-238 3 -31 -67z"/>
<path d="M5230 5260 c0 -4 128 -176 167 -225 4 -5 181 -241 392 -522 l383
-512 -86 -113 c-47 -62 -266 -349 -486 -637 -220 -288 -398 -526 -396 -529 3
-2 239 -5 525 -4 426 0 522 2 533 13 8 8 25 30 38 49 13 19 29 40 35 46 5 6
57 75 115 152 58 78 107 141 110 141 3 0 30 -34 60 -75 30 -41 63 -85 74 -97
10 -12 52 -68 93 -124 54 -73 82 -103 97 -104 31 0 1070 0 1078 0 6 1 -268
371 -326 442 -14 17 -570 751 -620 819 l-29 40 49 64 c27 36 57 75 66 88 10
13 64 84 120 158 282 368 708 930 708 932 0 6 -567 1 -602 -5 -92 -16 -199
-67 -270 -129 -21 -18 -134 -162 -251 -320 l-213 -287 -269 369 c-148 204
-273 370 -279 371 -44 4 -816 3 -816 -1z"/>
<path d="M511 3299 c-161 -64 -234 -255 -157 -412 29 -61 73 -105 139 -139 34
-18 58 -22 127 -22 104 0 160 23 223 94 117 130 102 323 -35 432 -59 47 -92
59 -173 64 -55 3 -81 0 -124 -17z"/>
</g>
</svg>
